<svg width="30" height="29" viewBox="0 0 30 29" fill="none" xmlns="http://www.w3.org/2000/svg">
<path d="M20.1373 0H9.31312C4.33219 0 0.292969 4.03922 0.292969 9.02015V19.8443C0.292969 24.8253 4.33219 28.8645 9.31312 28.8645H20.1373C25.1182 28.8645 29.1574 24.8253 29.1574 19.8443V9.02015C29.1574 4.03922 25.1182 0 20.1373 0ZM26.4514 19.8443C26.4514 23.3261 23.6191 26.1584 20.1373 26.1584H9.31312C5.83134 26.1584 2.99901 23.3261 2.99901 19.8443V9.02015C2.99901 5.53837 5.83134 2.70604 9.31312 2.70604H20.1373C23.6191 2.70604 26.4514 5.53837 26.4514 9.02015V19.8443Z" fill="white"/>
<path d="M14.7253 7.21613C10.7402 7.21613 7.50916 10.4471 7.50916 14.4322C7.50916 18.4173 10.7402 21.6484 14.7253 21.6484C18.7104 21.6484 21.9414 18.4173 21.9414 14.4322C21.9414 10.4471 18.7104 7.21613 14.7253 7.21613ZM14.7253 18.9423C12.2393 18.9423 10.2152 16.9182 10.2152 14.4322C10.2152 11.9445 12.2393 9.92217 14.7253 9.92217C17.2112 9.92217 19.2353 11.9445 19.2353 14.4322C19.2353 16.9182 17.2112 18.9423 14.7253 18.9423Z" fill="white"/>
<path d="M22.4827 7.63647C23.0137 7.63647 23.4442 7.20598 23.4442 6.67493C23.4442 6.14388 23.0137 5.71338 22.4827 5.71338C21.9516 5.71338 21.5211 6.14388 21.5211 6.67493C21.5211 7.20598 21.9516 7.63647 22.4827 7.63647Z" fill="white"/>
</svg>
