<svg width="30" height="27" viewBox="0 0 30 27" fill="none" xmlns="http://www.w3.org/2000/svg">
<path d="M16.9678 7.41609C20.3351 5.39422 22.15 8.24406 20.4239 11.4654C18.694 14.6996 17.1064 16.8084 16.284 16.8084C15.4764 16.8084 14.8369 14.6386 13.8907 10.8721C12.9204 6.97068 12.9204 -0.0633565 8.86186 0.735042C5.02511 1.49278 0 7.49925 0 7.49925L1.1939 9.07203C1.1939 9.07203 3.67042 7.11854 4.49469 8.09066C5.33005 9.07203 8.49223 20.8558 9.53828 23.0348C10.4513 24.9439 12.9851 27.4629 15.7536 25.6665C18.548 23.859 27.7721 15.9822 29.4243 6.66204C31.0729 -2.64152 18.3059 -0.693574 16.9678 7.41609Z" fill="white"/>
</svg>
