<svg width="33" height="23" viewBox="0 0 33 23" fill="none" xmlns="http://www.w3.org/2000/svg">
<path d="M31.6395 3.51984C31.2739 2.16085 30.2024 1.08957 28.8436 0.723639C26.3613 0.0444336 16.4317 0.0444336 16.4317 0.0444336C16.4317 0.0444336 6.50247 0.0444336 4.02012 0.697888C2.68746 1.06343 1.58985 2.16104 1.22431 3.51984C0.571045 6.002 0.571045 11.1497 0.571045 11.1497C0.571045 11.1497 0.571045 16.3233 1.22431 18.7795C1.59024 20.1383 2.66132 21.2096 4.02031 21.5755C6.52861 22.2549 16.4321 22.2549 16.4321 22.2549C16.4321 22.2549 26.3613 22.2549 28.8436 21.6015C30.2026 21.2357 31.2739 20.1644 31.6398 18.8056C32.2929 16.3233 32.2929 11.1758 32.2929 11.1758C32.2929 11.1758 32.319 6.002 31.6395 3.51984ZM13.2703 15.9053V6.39407L21.5273 11.1497L13.2703 15.9053Z" fill="white"/>
</svg>
